# xmcd
#
# Track frame offsets: 
#        150
#        17442
#        38615
#        56304
#        72412
#        84365
#        102479
#        119558
#        134796
#        146973
#        166923
#        179221
#        199914
#
# Disc length: 2845 seconds
#
# Revision: 0
# Processed by: cddbd v1.5.2PL0 Copyright (c) Steve Scherf et al.
# Submitted via: ExactAudioCopy v1.3
#
DISCID=c20b1b0d
DTITLE=Billy Dee - For Sale Sign
DYEAR=2015
DGENRE=Country
TTITLE0=I Don't Want To Hear It Anymore
TTITLE1=Rose In Paradise
TTITLE2=I Just Came Home To Count The Mem
TTITLE3=Do You Believe Me Now
TTITLE4=Jack Is The Winner Again
TTITLE5=Our Bed Of Roses
TTITLE6=Chiseled In Stone
TTITLE7=For Sale Sign
TTITLE8=Cryin' (Crying Over You Again)
TTITLE9=My Front Row Seat In Hell
TTITLE10=Falling For You
TTITLE11=All I Have To Offer You Is Me
TTITLE12=Heaven's Country Band
EXTD=
EXTT0=
EXTT1=
EXTT2=
EXTT3=
EXTT4=
EXTT5=
EXTT6=
EXTT7=
EXTT8=
EXTT9=
EXTT10=
EXTT11=
EXTT12=
PLAYORDER=
